<?xml version="1.0" encoding="UTF-8" standalone="no"?>
<!-- Created with Inkscape (http://www.inkscape.org/) -->

<svg
   width="200mm"
   height="200mm"
   viewBox="0 0 200 200"
   version="1.1"
   id="svg1052"
   inkscape:version="1.1.1 (3bf5ae0d25, 2021-09-20)"
   sodipodi:docname="ai_icon.svg"
   xmlns:inkscape="http://www.inkscape.org/namespaces/inkscape"
   xmlns:sodipodi="http://sodipodi.sourceforge.net/DTD/sodipodi-0.dtd"
   xmlns="http://www.w3.org/2000/svg"
   xmlns:svg="http://www.w3.org/2000/svg">
  <sodipodi:namedview
     id="namedview1054"
     pagecolor="#ffffff"
     bordercolor="#666666"
     borderopacity="1.0"
     inkscape:pageshadow="2"
     inkscape:pageopacity="0.0"
     inkscape:pagecheckerboard="0"
     inkscape:document-units="mm"
     showgrid="false"
     inkscape:zoom="0.19442866"
     inkscape:cx="-272.59355"
     inkscape:cy="1175.2382"
     inkscape:window-width="1284"
     inkscape:window-height="1081"
     inkscape:window-x="2504"
     inkscape:window-y="38"
     inkscape:window-maximized="0"
     inkscape:current-layer="layer1" />
  <defs
     id="defs1049" />
  <g
     inkscape:label="Layer 1"
     inkscape:groupmode="layer"
     id="layer1">
    <g
       transform="matrix(0.03527778,0,0,-0.03527778,-44.60246,228.58737)"
       fill="#000000"
       stroke="none"
       id="g928">
      <path
         d="m 3450,6259 c -65,-26 -101,-100 -80,-164 6,-19 27,-48 46,-65 29,-25 43,-30 84,-30 111,0 172,121 107,214 -34,48 -101,67 -157,45 z"
         id="path880" />
      <path
         d="m 4690,6259 c -65,-26 -101,-100 -80,-164 6,-19 27,-48 46,-65 29,-25 43,-30 86,-30 45,0 54,4 89,39 38,38 45,57 39,121 -6,76 -103,129 -180,99 z"
         id="path882" />
      <path
         d="m 2182,5706 c -124,-40 -192,-137 -192,-270 0,-105 51,-184 154,-239 31,-16 59,-22 116,-22 65,0 82,4 128,29 238,132 160,490 -111,512 -29,2 -71,-2 -95,-10 z"
         id="path884" />
      <path
         d="m 3422,5706 c -124,-40 -192,-137 -192,-270 0,-105 51,-184 154,-239 31,-16 59,-22 116,-22 65,0 82,4 128,29 238,132 160,490 -111,512 -29,2 -71,-2 -95,-10 z"
         id="path886" />
      <path
         d="m 4662,5706 c -124,-40 -192,-137 -192,-270 1,-102 52,-186 144,-234 42,-22 64,-27 126,-27 65,0 82,4 128,29 238,132 160,490 -111,512 -29,2 -71,-2 -95,-10 z"
         id="path888" />
      <path
         d="m 5903,5706 c -125,-40 -193,-133 -193,-263 1,-110 49,-191 144,-241 42,-22 64,-27 126,-27 65,0 82,4 128,29 168,93 192,312 49,443 -71,65 -164,87 -254,59 z"
         id="path890" />
      <path
         d="m 3284,4730 c -83,-27 -174,-88 -225,-152 -233,-293 -71,-717 299,-780 283,-48 552,184 552,477 0,214 -139,396 -349,459 -74,22 -200,20 -277,-4 z"
         id="path892" />
      <path
         d="m 4670,4731 c -88,-28 -140,-60 -201,-120 -121,-121 -167,-298 -124,-466 46,-174 200,-313 385,-346 313,-56 601,226 553,540 -38,244 -233,412 -477,410 -49,0 -103,-7 -136,-18 z"
         id="path894" />
      <path
         d="m 2174,4462 c -60,-21 -97,-49 -134,-100 -37,-51 -50,-94 -50,-167 0,-202 219,-328 400,-229 93,50 140,133 140,243 0,111 -84,224 -191,255 -67,20 -101,20 -165,-2 z"
         id="path896" />
      <path
         d="m 5902,4465 c -123,-38 -192,-135 -192,-269 0,-203 219,-329 400,-230 166,90 189,311 47,441 -71,66 -164,87 -255,58 z"
         id="path898" />
      <path
         d="m 1514,4326 c -82,-36 -102,-145 -40,-214 32,-35 38,-37 95,-37 52,0 63,4 90,29 41,40 55,84 42,134 -22,81 -108,122 -187,88 z"
         id="path900" />
      <path
         d="m 6603,4320 c -67,-40 -87,-105 -54,-174 36,-74 124,-99 192,-53 42,28 59,60 59,112 0,103 -111,168 -197,115 z"
         id="path902" />
      <path
         d="m 3361,3369 c -180,-22 -346,-168 -393,-348 -45,-173 1,-342 126,-466 263,-263 707,-140 801,222 43,164 -6,336 -129,458 -108,108 -245,153 -405,134 z"
         id="path904" />
      <path
         d="m 4745,3369 c -327,-42 -509,-388 -365,-693 38,-79 131,-171 215,-211 190,-92 401,-57 550,89 66,66 105,134 130,231 54,211 -56,444 -255,539 -40,20 -93,38 -119,41 -25,3 -57,7 -71,9 -14,1 -52,-1 -85,-5 z"
         id="path906" />
      <path
         d="m 2197,3230 c -54,-14 -87,-33 -129,-75 -52,-53 -72,-99 -76,-183 -4,-63 -1,-79 23,-127 68,-140 225,-193 363,-124 102,50 152,133 152,248 0,99 -72,208 -161,245 -48,20 -126,27 -172,16 z"
         id="path908" />
      <path
         d="m 5908,3227 c -61,-18 -111,-52 -146,-102 -39,-54 -52,-97 -52,-170 0,-198 208,-324 388,-234 102,50 152,133 152,248 0,99 -73,208 -164,246 -50,21 -126,26 -178,12 z"
         id="path910" />
      <path
         d="m 1514,3086 c -82,-36 -102,-145 -40,-214 32,-35 38,-37 95,-37 52,0 63,4 90,29 41,40 55,84 42,134 -22,81 -108,122 -187,88 z"
         id="path912" />
      <path
         d="m 6614,3086 c -72,-32 -101,-113 -65,-181 40,-75 124,-98 192,-52 42,28 59,60 59,112 0,98 -95,160 -186,121 z"
         id="path914" />
      <path
         d="m 2197,1990 c -59,-15 -91,-35 -139,-89 -156,-174 -32,-451 202,-451 195,0 329,208 246,385 -25,55 -90,119 -140,140 -45,19 -124,26 -169,15 z"
         id="path916" />
      <path
         d="m 3437,1990 c -54,-14 -87,-33 -129,-75 -52,-53 -72,-99 -76,-183 -4,-63 -1,-79 23,-127 128,-263 515,-170 515,124 0,99 -73,208 -164,246 -45,19 -124,26 -169,15 z"
         id="path918" />
      <path
         d="m 4677,1990 c -54,-14 -87,-33 -129,-75 -52,-53 -72,-99 -76,-183 -4,-63 -1,-79 23,-127 128,-263 515,-170 515,124 0,99 -73,208 -164,246 -45,19 -124,26 -169,15 z"
         id="path920" />
      <path
         d="m 5917,1990 c -54,-14 -87,-33 -129,-75 -52,-53 -72,-99 -76,-183 -4,-63 -1,-79 23,-127 128,-263 515,-170 515,124 0,99 -73,208 -164,246 -45,19 -124,26 -169,15 z"
         id="path922" />
      <path
         d="m 3450,1159 c -94,-38 -114,-153 -39,-225 26,-25 38,-29 89,-29 51,0 63,4 89,29 108,104 -1,280 -139,225 z"
         id="path924" />
      <path
         d="m 4690,1159 c -94,-38 -114,-153 -39,-225 26,-25 38,-29 89,-29 51,0 63,4 89,29 108,104 -1,280 -139,225 z"
         id="path926" />
    </g>
  </g>
</svg>
